<svg xmlns="http://www.w3.org/2000/svg" viewBox="0 0 17.24 14"><defs><style>.a43ab926-499b-421f-ba3c-ebc4f1693df2{fill:#000078;}</style></defs><g id="a87da137-36ed-4428-bc5c-2d1aa8c1c98a" data-name="design"><path id="ee8d6d6f-4890-46d8-9e80-25cceecc7bf2" data-name="Icon awesome-twitter" class="a43ab926-499b-421f-ba3c-ebc4f1693df2" d="M15.47,3.49c0,.15,0,.3,0,.46A10,10,0,0,1,5.56,14H5.43A10,10,0,0,1,0,12.41a8.08,8.08,0,0,0,.85.05A7.12,7.12,0,0,0,5.24,11,3.53,3.53,0,0,1,1.94,8.5a4.89,4.89,0,0,0,.66.05,3.59,3.59,0,0,0,.93-.12A3.52,3.52,0,0,1,.7,5v0a3.47,3.47,0,0,0,1.6.45A3.54,3.54,0,0,1,1.2.64a10.05,10.05,0,0,0,7.29,3.7,3.66,3.66,0,0,1-.09-.81A3.54,3.54,0,0,1,11.94,0a3.47,3.47,0,0,1,2.57,1.12A7.18,7.18,0,0,0,16.75.26a3.49,3.49,0,0,1-1.55,2,7.26,7.26,0,0,0,2-.55,7.73,7.73,0,0,1-1.78,1.83Z"/></g></svg>