<svg xmlns="http://www.w3.org/2000/svg" viewBox="0 0 428.64 93.86"><defs><style>.af9bc9ce-b2fe-4044-afd5-d56b9f2cd718{fill:#000078;}</style></defs><g id="afbfc9a5-d65f-4750-96d3-8ff483ebdbf0" data-name="design"><path class="af9bc9ce-b2fe-4044-afd5-d56b9f2cd718" d="M9.5,11.21A9.79,9.79,0,0,0,6.65,4,15.65,15.65,0,0,0,0,0H17.86L57,80,91,0h14.63a7.6,7.6,0,0,0-5.13,4.08,15.73,15.73,0,0,0-1.33,6.56V82.27A16.15,16.15,0,0,0,100.51,89a7.59,7.59,0,0,0,5.13,4.09H83.79A7.63,7.63,0,0,0,88.92,89a16.31,16.31,0,0,0,1.33-6.74V5.7L58,81.89,61,88c-3.17.25-5.7,2-7.6,5.13L11,6.27V81.32a10.29,10.29,0,0,0,2.66,7.5,17.48,17.48,0,0,0,7,4.28H0a16.85,16.85,0,0,0,6.94-4.28,10.59,10.59,0,0,0,2.56-7.5Z"/><path class="af9bc9ce-b2fe-4044-afd5-d56b9f2cd718" d="M133.38,59.85A31.76,31.76,0,0,1,136,46.93,34.18,34.18,0,0,1,153.9,29.07a32.71,32.71,0,0,1,25.84,0A34.18,34.18,0,0,1,197.6,46.93a31.92,31.92,0,0,1,2.66,12.92,33.23,33.23,0,0,1-9.69,23.56,34.36,34.36,0,0,1-10.64,7.22A32,32,0,0,1,167,93.29a32.38,32.38,0,0,1-13.11-2.66A34.18,34.18,0,0,1,136,72.77,31.76,31.76,0,0,1,133.38,59.85Zm31.16-31.54A17.65,17.65,0,0,0,154.85,31a24.67,24.67,0,0,0-7,6.74A30,30,0,0,0,143.54,47a39.29,39.29,0,0,0-1.42,10.36,41.4,41.4,0,0,0,1.8,11.78,39.93,39.93,0,0,0,5.23,11.11,28.55,28.55,0,0,0,8.36,8.18,20.46,20.46,0,0,0,11.21,3.13,17.62,17.62,0,0,0,9.69-2.66,23.35,23.35,0,0,0,6.93-6.75,31,31,0,0,0,4.18-9.3A39.31,39.31,0,0,0,191,62.51a44,44,0,0,0-1.71-12,36.62,36.62,0,0,0-5.13-11,29.05,29.05,0,0,0-8.36-8.07A20.41,20.41,0,0,0,164.54,28.31Z"/><path class="af9bc9ce-b2fe-4044-afd5-d56b9f2cd718" d="M232.18,37.43a30.54,30.54,0,0,0-3.52-6.55,12.74,12.74,0,0,0-6-4.28H243A5.61,5.61,0,0,0,240.16,29a7.14,7.14,0,0,0-.95,3.71,8.56,8.56,0,0,0,.57,3l20.52,45.6,18.81-42.75a10.76,10.76,0,0,0,.57-3.42,10.3,10.3,0,0,0-1.62-5.61,6.27,6.27,0,0,0-4.84-2.94h20.52a15,15,0,0,0-6.84,3.32,16.21,16.21,0,0,0-4.56,6.18L256.88,93.29Z"/><path class="af9bc9ce-b2fe-4044-afd5-d56b9f2cd718" d="M331.74,82.27A16.15,16.15,0,0,0,333.07,89a7.59,7.59,0,0,0,5.13,4.09H317.87a7.3,7.3,0,0,0,5-4.09,17.35,17.35,0,0,0,1.24-6.74V26.6a7.18,7.18,0,0,1,7.6,7.6Zm-4.18-63.08a5.59,5.59,0,0,1-4-1.43,5,5,0,0,1-1.52-3.89,5.06,5.06,0,0,1,1.52-3.9,5.58,5.58,0,0,1,4-1.42c3.54,0,5.32,1.77,5.32,5.32S331.1,19.19,327.56,19.19Z"/><path class="af9bc9ce-b2fe-4044-afd5-d56b9f2cd718" d="M428.64,71.82Q422.37,83,413.25,88.45A35.55,35.55,0,0,1,395,93.86a29.12,29.12,0,0,1-11.21-2.19,27.14,27.14,0,0,1-9.41-6.46,30.7,30.7,0,0,1-6.46-10.64,42,42,0,0,1-2.37-14.72A38.38,38.38,0,0,1,367.74,47a35.09,35.09,0,0,1,6.18-10.92,29.43,29.43,0,0,1,9.59-7.51A28,28,0,0,1,396,25.84,26.63,26.63,0,0,1,406.79,28a27.69,27.69,0,0,1,8.45,5.7,25.83,25.83,0,0,1,5.51,8.17,24.64,24.64,0,0,1,2,9.79h-49.4a13.49,13.49,0,0,0-.19,2.28v2.47a35.5,35.5,0,0,0,2.28,12.92,32.93,32.93,0,0,0,6.08,10.16,27.15,27.15,0,0,0,8.83,6.65,24.35,24.35,0,0,0,10.55,2.38A27.3,27.3,0,0,0,415,84.36q7-4.19,12.54-13.49ZM412.49,50a26.14,26.14,0,0,0-1.62-9.5,21.72,21.72,0,0,0-4.27-7,17.64,17.64,0,0,0-6.08-4.28,18.13,18.13,0,0,0-7-1.42q-6.66,0-12.54,5.32T373.54,50Z"/></g></svg>