<svg xmlns="http://www.w3.org/2000/svg" viewBox="0 0 100.13 698.8"><defs><style>.bd33ea97-51e7-4781-9949-a4e1d67883bf{fill:#000078;}</style></defs><g id="aebb6a5a-92bc-4aaa-bc8f-7f83b910db33" data-name="design"><path class="bd33ea97-51e7-4781-9949-a4e1d67883bf" d="M19.76,82.65A50.78,50.78,0,0,1,5.32,65.93,44.17,44.17,0,0,1,0,44.65,42.82,42.82,0,0,1,3.8,26.5,43.33,43.33,0,0,1,14.06,12.35,45.89,45.89,0,0,1,29.17,3.23,51.76,51.76,0,0,1,47.5,0,51.6,51.6,0,0,1,65.93,3.23a45,45,0,0,1,14.82,9,40.57,40.57,0,0,1,9.79,14.06,46.45,46.45,0,0,1,3.51,18.34,51.41,51.41,0,0,1-2.28,15.2A63.7,63.7,0,0,1,85.5,73.91H72.2A53.15,53.15,0,0,0,86.35,59.66a33.09,33.09,0,0,0,5.8-19q0-11.22-6.55-18a36.18,36.18,0,0,0-16.25-9.69,55.22,55.22,0,0,0-21.18-1.71,60.21,60.21,0,0,0-21.19,6A47,47,0,0,0,10.74,30.4Q4.19,38.75,4.18,50.54a30.75,30.75,0,0,0,4.94,17A58.26,58.26,0,0,0,20.9,80.94Z"/><path class="bd33ea97-51e7-4781-9949-a4e1d67883bf" d="M52.44,122.74a30.36,30.36,0,0,1,11.5,11.11,27.63,27.63,0,0,1,4.27,14.35,19.9,19.9,0,0,1-1.33,7.22,16.47,16.47,0,0,1-4.18,6.08,20.17,20.17,0,0,1-7.31,4.18,33.62,33.62,0,0,1-10.74,1.52H12.54a17,17,0,0,0-7.12,1.42A8.49,8.49,0,0,0,1,174V152.76a8.39,8.39,0,0,0,4.56,5.41,17.19,17.19,0,0,0,7,1.43H46.36q10.06,0,14.44-4.37a14.29,14.29,0,0,0,4.37-10.45A22.55,22.55,0,0,0,60.8,132a24.85,24.85,0,0,0-11.59-9.21H12.54a16.37,16.37,0,0,0-7,1.42A9.2,9.2,0,0,0,1,129.58V108.49a8.82,8.82,0,0,0,4.56,5.32,17.49,17.49,0,0,0,7,1.33h87.59a7.3,7.3,0,0,1-2,5.41,7.09,7.09,0,0,1-5.23,2Z"/><path class="bd33ea97-51e7-4781-9949-a4e1d67883bf" d="M17.29,195.7q6.27,0,10.07,3a24.3,24.3,0,0,1,6.27,7.69,60.39,60.39,0,0,1,4.18,10.07q1.71,5.42,3.52,10.07a28.39,28.39,0,0,0,4.27,7.7,8.14,8.14,0,0,0,6.65,3,14.42,14.42,0,0,0,9.79-4,13.15,13.15,0,0,0,4.46-10.26,14.19,14.19,0,0,0-2.09-7.7A16.18,16.18,0,0,0,59,210a24.1,24.1,0,0,0-7.13-2.85,21.64,21.64,0,0,0-7.22-.47l7-7.41a43.25,43.25,0,0,1,11.4,9.88q4.56,5.7,4.56,15.2,0,20.13-20.33,20.52H11.78A16.15,16.15,0,0,0,5,246.24,7.59,7.59,0,0,0,1,251.37V231a7.3,7.3,0,0,0,4.09,5,17.35,17.35,0,0,0,6.74,1.24h1.14a20.73,20.73,0,0,1-9.69-9,25.57,25.57,0,0,1-3-12.06,26.05,26.05,0,0,1,1.14-7.7A20.56,20.56,0,0,1,4.66,202a16.36,16.36,0,0,1,5.41-4.56A15.18,15.18,0,0,1,17.29,195.7Zm29.07,41.61A16.45,16.45,0,0,1,42,232a71.63,71.63,0,0,1-3.14-6.84q-1.41-3.61-2.84-7.32a24.45,24.45,0,0,0-3.71-6.55,18.94,18.94,0,0,0-5.7-4.75,17.39,17.39,0,0,0-8.55-1.9q-8.55,0-12.35,4.08a13.42,13.42,0,0,0-3.8,9.41A18.68,18.68,0,0,0,3.23,225,19.91,19.91,0,0,0,7,231.13a19.47,19.47,0,0,0,5.89,4.47,16.74,16.74,0,0,0,7.6,1.71Z"/><path class="bd33ea97-51e7-4781-9949-a4e1d67883bf" d="M52.06,289.74a20.13,20.13,0,0,1,6.46,4.94,37.18,37.18,0,0,1,4.85,6.94A41.16,41.16,0,0,1,66.5,309a22.62,22.62,0,0,1,1.14,6.55h-12a46.61,46.61,0,0,0,3.61-4.84A12.87,12.87,0,0,0,59.47,299a20.38,20.38,0,0,0-3.32-4.66A17.35,17.35,0,0,0,51.87,291a8.59,8.59,0,0,0-4-1.24H11.78A17.17,17.17,0,0,0,5,291,7.3,7.3,0,0,0,1,296V275.68A7.59,7.59,0,0,0,5,280.81a16.15,16.15,0,0,0,6.74,1.33H67.45v.38a6.83,6.83,0,0,1-7.22,7.22Z"/><path class="bd33ea97-51e7-4781-9949-a4e1d67883bf" d="M17.29,341.42q6.27,0,10.07,3a24.34,24.34,0,0,1,6.27,7.7,60.39,60.39,0,0,1,4.18,10.07q1.71,5.41,3.52,10.07A28.32,28.32,0,0,0,45.6,380a8.11,8.11,0,0,0,6.65,3A14.42,14.42,0,0,0,62,379a13.15,13.15,0,0,0,4.46-10.26,14.16,14.16,0,0,0-2.09-7.69A16.18,16.18,0,0,0,59,355.77a24.1,24.1,0,0,0-7.13-2.85,21.92,21.92,0,0,0-7.22-.48l7-7.41a43.44,43.44,0,0,1,11.4,9.88q4.56,5.7,4.56,15.2,0,20.14-20.33,20.52H11.78A16.31,16.31,0,0,0,5,392,7.63,7.63,0,0,0,1,397.09V376.76a7.34,7.34,0,0,0,4.09,5A17.35,17.35,0,0,0,11.78,383h1.14a20.66,20.66,0,0,1-9.69-9,25.64,25.64,0,0,1-3-12.07,26,26,0,0,1,1.14-7.69,20.61,20.61,0,0,1,3.33-6.56,16.36,16.36,0,0,1,5.41-4.56A15.18,15.18,0,0,1,17.29,341.42ZM46.36,383A16.25,16.25,0,0,1,42,377.71a69.44,69.44,0,0,1-3.14-6.84C37.91,368.46,37,366,36,363.56A24.51,24.51,0,0,0,32.3,357a19.08,19.08,0,0,0-5.7-4.75,17.5,17.5,0,0,0-8.55-1.9q-8.55,0-12.35,4.09a13.39,13.39,0,0,0-3.8,9.4,18.68,18.68,0,0,0,1.33,6.84A20,20,0,0,0,7,376.86a19.6,19.6,0,0,0,5.89,4.46,16.74,16.74,0,0,0,7.6,1.71Z"/><path class="bd33ea97-51e7-4781-9949-a4e1d67883bf" d="M22.23,486.58Q11,480.31,5.6,471.19A35.55,35.55,0,0,1,.19,453a29.16,29.16,0,0,1,2.19-11.21,27.24,27.24,0,0,1,6.45-9.41,30.76,30.76,0,0,1,10.65-6.45A41.77,41.77,0,0,1,34.2,423.5,38.14,38.14,0,0,1,47,425.69,34.87,34.87,0,0,1,58,431.86a29.36,29.36,0,0,1,7.51,9.6,27.87,27.87,0,0,1,2.75,12.44,24.28,24.28,0,0,1-5.13,15.58A25.15,25.15,0,0,1,50,478.22v-9.69q8-2.28,12.07-7.41a17.14,17.14,0,0,0,4.08-10.83,15.54,15.54,0,0,0-1.71-7,18.36,18.36,0,0,0-5.22-6.18,27.06,27.06,0,0,0-8.84-4.37,44.4,44.4,0,0,0-12.73-1.61,35.46,35.46,0,0,0-12.92,2.28,32.93,32.93,0,0,0-10.16,6.08,27.29,27.29,0,0,0-6.65,8.83,24.38,24.38,0,0,0-2.38,10.55A27.3,27.3,0,0,0,9.69,472.9q4.19,7,13.49,12.54Z"/><path class="bd33ea97-51e7-4781-9949-a4e1d67883bf" d="M67.45,524v23.56H65.74V524H18.05a15.16,15.16,0,0,0-9.69,3.32,11.12,11.12,0,0,0-4.18,9.22,16.08,16.08,0,0,0,1.62,6.74,14.73,14.73,0,0,0,4.27,5.61,13.88,13.88,0,0,1-6.84-6.84A21.43,21.43,0,0,1,1,532.75a16.17,16.17,0,0,1,1.62-7.51,14.23,14.23,0,0,1,4.37-5.13,17.6,17.6,0,0,1,6.27-2.85,31.62,31.62,0,0,1,7.5-.85h45v-8.93h1.71q0,7,3.42,10.73a25.7,25.7,0,0,0,7.79,5.8Z"/><path class="bd33ea97-51e7-4781-9949-a4e1d67883bf" d="M22.23,636.68Q11,630.41,5.6,621.29A35.55,35.55,0,0,1,.19,603.05a29.12,29.12,0,0,1,2.19-11.21,27.15,27.15,0,0,1,6.45-9.41A30.78,30.78,0,0,1,19.48,576,42,42,0,0,1,34.2,573.6,38.13,38.13,0,0,1,47,575.78,35.09,35.09,0,0,1,58,582a29.32,29.32,0,0,1,7.51,9.59A28,28,0,0,1,68.21,604,26.63,26.63,0,0,1,66,614.83a27.69,27.69,0,0,1-5.7,8.45,26,26,0,0,1-8.17,5.51,24.64,24.64,0,0,1-9.79,2v-49.4a13.49,13.49,0,0,0-2.28-.19H37.62a35.46,35.46,0,0,0-12.92,2.28,32.93,32.93,0,0,0-10.16,6.08,27.19,27.19,0,0,0-6.65,8.83,24.35,24.35,0,0,0-2.38,10.55A27.3,27.3,0,0,0,9.69,623q4.19,7,13.49,12.54Zm21.85-16.15a26.17,26.17,0,0,0,9.5-1.62,21.72,21.72,0,0,0,7-4.27,17.51,17.51,0,0,0,4.28-6.08,18.32,18.32,0,0,0,1.42-7q0-6.66-5.32-12.54t-16.91-7.41Z"/><path class="bd33ea97-51e7-4781-9949-a4e1d67883bf" d="M52.06,673a20.13,20.13,0,0,1,6.46,4.94,37.18,37.18,0,0,1,4.85,6.94,41.16,41.16,0,0,1,3.13,7.41,22.62,22.62,0,0,1,1.14,6.55h-12A46.61,46.61,0,0,0,59.28,694a12.87,12.87,0,0,0,.19-11.78,20.38,20.38,0,0,0-3.32-4.66,17.35,17.35,0,0,0-4.28-3.32,8.59,8.59,0,0,0-4-1.24H11.78A17.17,17.17,0,0,0,5,674.2a7.3,7.3,0,0,0-4.09,5V658.9A7.59,7.59,0,0,0,5,664a16.15,16.15,0,0,0,6.74,1.33H67.45v.38A6.83,6.83,0,0,1,60.23,673Z"/></g></svg>