<svg xmlns="http://www.w3.org/2000/svg" viewBox="0 0 108.83 50"><defs><style>.be132ac2-34f4-47db-8321-7eb9668b3261{fill:#000078;}</style></defs><g id="ad6a8e21-28b5-4a59-8680-580faff04215" data-name="design"><path class="be132ac2-34f4-47db-8321-7eb9668b3261" d="M13.51,14.3c-.65,0-.67.15-.67,3.37,0,1.34,0,1.63.74,1.88,1.14.37,3.92.37,8.72.37a37.07,37.07,0,0,0,4.17-.22c1.24-.2,1.36-.52,2.05-2.2.28-.65.28-.65.37-.65s.18,0,.18,1.19a2.75,2.75,0,0,0,.2,1.17,6.34,6.34,0,0,1,.47.94c0,1.19-2.18,1.61-9.17,1.61-9.46,0-9.46-.7-9.46-3.4,0-1.26.19-8.2.19-9.46,0-.69-.5-.18-1.43.37s-5.49,2.86-6.52,3c-.05,0-.19,0-.22-.05s.11-.24.37-.36C7.32,10.26,13.94,5.27,15.66.58c.05-.35.13-.58.28-.58s2.85,1.71,2.85,2.11c0,.15-.05.15-.5.27a2.39,2.39,0,0,0-.94.82c0,.15.27.15.4.15h4.53c.42,0,.69,0,1.36-.87C24,2,24.14,2,24.26,2A5,5,0,0,1,26.17,3.8c0,.22-.07.24-.79.47-.18.07-2.95,2.42-3.5,2.87S21,7.86,21,8s.25.17.37.17h2.95A1,1,0,0,0,25,8c1-.77,1-.82,1.07-.82.24,0,1.9,1.19,1.9,1.66,0,.23-.17.35-.49.52a.83.83,0,0,0-.28.65c0,.27-.07,3.86-.09,4.43A1.43,1.43,0,0,1,26,16c-.72,0-.75-.64-.77-1.07a.58.58,0,0,0-.62-.59ZM17,4a1.65,1.65,0,0,0-1.06.48c-1,.89-1.93,1.73-2.42,2.15s-.64.59-.63.83c0,.42.64.73,1.54.73H19c.82,0,1.09-.27,1.86-1.26a14.27,14.27,0,0,0,1.74-2.68c0-.25-.33-.25-.55-.25Zm.05,9.64c1.14,0,1.22,0,1.22-1.91,0-2.67,0-2.87-.72-2.87H13.66c-.72,0-.72.37-.72,1.44,0,.39,0,2.28,0,2.72s.28.62.85.62Zm3.59-4.78a.61.61,0,0,0-.64.37,12.62,12.62,0,0,0-.07,2.55c0,1.69,0,1.86.81,1.86h3.84a.78.78,0,0,0,.52-.17,14.78,14.78,0,0,0,.25-3.32c0-.92,0-1.29-.69-1.29Z"/><path class="be132ac2-34f4-47db-8321-7eb9668b3261" d="M50.28,10.64c-.19,0-.71.73-.83.84s-.24.15-1,.15H48c-.54,0-.58-.28-.58-.59s.06-2.7.08-2.86c0-.49.34-.49.54-.49H49.7c.86,0,.95,0,.95-.22S49.49,6.25,49.4,6.25s-.67.73-.82.82a2,2,0,0,1-1,.12H45.16c-.32,0-.45,0-.45-.15s.86-1.63,1-1.93a1.53,1.53,0,0,1,.54-.73c.43-.26.43-.26.43-.35A6.21,6.21,0,0,0,45,3.09c-.08,0-.09,0-.23.6A28.6,28.6,0,0,1,43,8.36c-.11.25-.75,1.35-.75,1.48s0,0,0,0c.24,0,1.16-1.14,1.72-1.83a.73.73,0,0,1,.67-.36H45.7c.58,0,.58.26.58.86a19.29,19.29,0,0,1-.13,2.86c-.1.22-.34.22-.56.22-1,0-2,0-2.55-.07l-.82-.06s-.07,0-.07,0a.21.21,0,0,0,.07.13l.37.43c.08.09.1.13.17.13s.68-.07.79-.07c.67,0,1.4,0,2,0,.33,0,.56,0,.56.47a10.33,10.33,0,0,1-1,4.31,9,9,0,0,1-4.16,4.25,9.49,9.49,0,0,1-5.19.8c-.61-.13-1.58-.45-1.58-1.24S35.39,19,35.5,19s.1.11.1.17,0,.69,0,.83,0,.72.44.72.52-.8.52-1,0-.72,0-.85c0-.29,0-.45.24-.59s1.86-.79,2.21-1c.88-.38,2-.85,2-1.51a1.33,1.33,0,0,0-1.33-1.26c-1.23,0-2.15,1.28-2.61,1.94a7.06,7.06,0,0,1-.58.76s0,0-.14-.27a1.28,1.28,0,0,0-1.21-.86,1.35,1.35,0,0,0-.55.11,2.78,2.78,0,0,1-.44.16s0,0,0-.06,0-.1.09-.23a10.37,10.37,0,0,0,.77-1.53c.31-.72.32-.75.54-.83.65-.25,1.68-.65,1.68-1.12,0-.29-.54-.37-.64-.37-.56,0-.62-.07-.63-.25s-.39-.44-.72-.44-.63.11-.63.23.3.34.34.41a1.13,1.13,0,0,1,.12.49c0,.29,0,.67-1.16.67a2.16,2.16,0,0,1-.94-.26,3,3,0,0,0-.54-.27c-.08,0-.08.06-.08.1a1.5,1.5,0,0,0,1.26,1.25c.13,0,.71-.11.85-.11s.15,0,.15.09a6.35,6.35,0,0,1-1.2,2.11c-1,1.12-1.36,1.57-1.36,2s.27.46.54.46c.45,0,.61-.33.76-.69A2.45,2.45,0,0,1,35,16.55c.57,0,.68.79.68,1.43a.63.63,0,0,1-.21.5c-1.33,1.07-1.9,1.6-1.9,2.51,0,1.11,1,1.84,2.78,1.77a11.12,11.12,0,0,0,4.81-1.28,10.63,10.63,0,0,0,3.39-2.41,10,10,0,0,0,2.25-3.45c.15-.43.25-.7.34-.7.3,0,1.4,1.61,1.78,3,.33,1.2.37,1.33.74,1.33s.77-.58.77-1c0-1-1-2.22-2.79-3.4-.39-.26-.46-.3-.46-.52s.17-1.57.2-1.8.19-.39.54-.39h2.53c.61,0,1,0,1-.22a1.62,1.62,0,0,0-.34-.51C50.43,10.64,50.37,10.64,50.28,10.64ZM39.21,15.09a.43.43,0,0,1,.49.43c0,.93-2.78,2.06-2.83,2.06s0,0,0-.07C36.82,17.29,38,15.09,39.21,15.09Zm-3.45-2.71c.12,0,.48,0,.48.21s-.68.34-.71.34,0,0,0-.1S35.56,12.38,35.76,12.38Z"/><path class="be132ac2-34f4-47db-8321-7eb9668b3261" d="M58,8.62a3.36,3.36,0,0,1,.08-1.06c0-.11.43-.58.43-.69s-1.1-1-1.18-1-.33.26-.54.52-.26.19-.52.19H53.45a1.22,1.22,0,0,1-.78-.28,6.45,6.45,0,0,0-1.1-.64c-.19,0-.19.17-.19.26s.17.86.19,1c.11,1.14.15,2.25.15,3.18v7.59c0,.09-.06,1.51-.06,1.79s0,.53.41.53a.91.91,0,0,0,1-1c0-.1,0-.54,0-.64,0-.41.17-.56.53-.56h2.56c.54,0,.54.36.54.6,0,.73,0,.82.39.82s1.05-.35,1.05-1.29c0-.15,0-.24,0-1.14C58.07,16.59,58,8.79,58,8.62Zm-1.32,8.45a.53.53,0,0,1-.53.27H53.57c-.17,0-.51,0-.55-.38S53,9.52,53,8.21c0-.89,0-1.12.58-1.12H56.2a.52.52,0,0,1,.53.26c.09.25.09,3.14.09,3.65C56.82,11.34,56.76,16.87,56.71,17.07Z"/><path class="be132ac2-34f4-47db-8321-7eb9668b3261" d="M69.05,16a2.55,2.55,0,0,0-2.71-2.45c-2.13,0-3.49,2.21-3.78,2.7s-.49.86-.92.86a.44.44,0,0,1-.47-.45c0-.41.13-.76,1.27-2.09a53,53,0,0,0,3.64-4.84c.53-.76.75-1.1.75-1.27s-.11-.23-.3-.23c-.6,0-1.55.81-1.82,1-.64.53-.87.58-1.14.58-.76,0-1.25-1-1.25-1.11s0-.05.38-.05a7.61,7.61,0,0,0,2.49-.58c1-.43,1.11-.48,1.47-.48.64,0,1.68.4,1.68,1.11,0,.47-.36.72-1.14,1.25a9.93,9.93,0,0,0-2.57,3.3.12.12,0,0,0,.1.11l.4-.14A3.71,3.71,0,0,1,66.54,13a3.47,3.47,0,0,1,3.62,3.34c0,2-2,3.48-4,3.48-1.59,0-2.73-.85-2.73-1.66A1.54,1.54,0,0,1,65,16.87a2.36,2.36,0,0,1,1.83,1c.23.29.32.43.55.43A2.37,2.37,0,0,0,69.05,16Zm-4.13,1.44a.66.66,0,0,0-.68.57c0,.42.7.75,1.39.75a.26.26,0,0,0,.27-.29A1.09,1.09,0,0,0,64.92,17.46Z"/><path class="be132ac2-34f4-47db-8321-7eb9668b3261" d="M78.94,7.2a.44.44,0,0,0-.51-.48l-.47,0c-.15,0-1.38-.26-1.38-.55,0-.08.17-.38.17-.46a1.38,1.38,0,0,0-1.22-.81c-.4,0-.69.2-.69.35s.37.49.43.57a2.17,2.17,0,0,1,.18,1,4.43,4.43,0,0,1-.17,1.25,3.25,3.25,0,0,1-1.08.14A5.48,5.48,0,0,1,72.83,8c-.06,0-.29-.13-.35-.13a.06.06,0,0,0-.06.06,1.47,1.47,0,0,0,.8.82,2.94,2.94,0,0,0,1.36.28c.49,0,.55,0,.55.15a20.76,20.76,0,0,1-2,5.63c-.48.89-.55,1-.55,1.23s0,.67.41.67.84,0,1.9-3.18A41.08,41.08,0,0,0,76,9.2c.06-.27.12-.29.64-.43C77.64,8.5,78.94,8.05,78.94,7.2Zm-2.6.64c-.09,0-.08-.09-.06-.2.07-.37.07-.41.13-.72,0-.15.08-.18.17-.18s1,.33,1,.49S76.41,7.84,76.34,7.84Z"/><path class="be132ac2-34f4-47db-8321-7eb9668b3261" d="M82.32,15.69c-.22,0-1.29.14-1.53.15A4.77,4.77,0,0,1,79,15.61c-.5-.19-1.13-.61-1.17-1.21a2.21,2.21,0,0,1,.64-1.6A4.32,4.32,0,0,1,80,11.69a5,5,0,0,1,2-.59h.68a.5.5,0,0,0,.44-.14.34.34,0,0,0,.06-.26.9.9,0,0,0-.55-.64,3.46,3.46,0,0,0-1.38-.3,6.53,6.53,0,0,0-2.7.44,2.3,2.3,0,0,0-.65.36s-.08.11,0,.14h.06a3.4,3.4,0,0,0,.46-.07A11.51,11.51,0,0,1,80,10.49a2,2,0,0,1,.72.09.14.14,0,0,1,.1.07c0,.07,0,.18-.08.23a8.47,8.47,0,0,0-2.65,2,2.66,2.66,0,0,0-.53,2.38c.42,1.21,1.84,1.5,3,1.6a10.43,10.43,0,0,0,1.25,0c1.2,0,1.72-.12,1.7-.53S82.8,15.67,82.32,15.69Z"/><path class="be132ac2-34f4-47db-8321-7eb9668b3261" d="M95.74,9.56a4.13,4.13,0,0,1,.85,1c.33.56.44.7.66.71s.45-.32.46-.5c0-.67-1-1.45-1.88-1.5-.13,0-.25,0-.26.1S95.69,9.51,95.74,9.56Z"/><path class="be132ac2-34f4-47db-8321-7eb9668b3261" d="M97,8.21c-.25,0-.52,0-.52.14s0,.1.16.16a3.08,3.08,0,0,1,1.16.86c.23.33.4.54.7.55s.37-.23.38-.38C99,8.9,98.14,8.27,97,8.21Z"/><path class="be132ac2-34f4-47db-8321-7eb9668b3261" d="M96.61,14.24a5,5,0,0,1-1.91-3.1c-.3-1.49-.34-1.77-.83-1.77a.51.51,0,0,0-.5.55,3.3,3.3,0,0,0,.22.92,5.91,5.91,0,0,1,.19,1.64c0,.49,0,3.72-1,5.45a3.63,3.63,0,0,1-3,1.63,2.34,2.34,0,0,1-2.36-2.46c0-1.85,1.84-5.66,2.87-6,.57-.2.84-.29.84-.63a.47.47,0,0,0-.48-.43c-.18,0-.27,0-1.13.35a7.52,7.52,0,0,1-1.83.38c-.1,0-.65-.08-.69-.08s-.09.06-.09.14.27,1,.84,1c.14,0,.74-.32.89-.32s.11,0,.11.07-.77,1.39-.83,1.51a9.37,9.37,0,0,0-1.44,4.43,3.12,3.12,0,0,0,3.21,3.18,4.29,4.29,0,0,0,4.16-3.33,19.76,19.76,0,0,0,.41-4.94s0-.18.06-.18.82,1.45,1,1.7c.39.7,1.08,1.89,1.75,1.89a.64.64,0,0,0,.54-.63C97.54,15,97.41,14.79,96.61,14.24Z"/><path class="be132ac2-34f4-47db-8321-7eb9668b3261" d="M100.47,22.42c-.34,0-.4-.12-.93-1.08a4.59,4.59,0,0,0-1.69-1.72s-.23-.15-.23-.19,0-.12.18-.12c.56,0,3.3.84,3.3,2.33A.79.79,0,0,1,100.47,22.42Z"/><path class="be132ac2-34f4-47db-8321-7eb9668b3261" d="M.08,31.43C0,31.35,0,31.33,0,31.3a.05.05,0,0,1,.06-.06,8.19,8.19,0,0,1,.88.09c.56,0,1.67.06,2.15.06.71,0,.73-.25.73-.8,0-.35-.06-2.59-.1-3.21,0-.42-.13-1.53-.13-1.72s.07-.31.21-.31,2,.54,2,.85c0,.11-.38.42-.42.51-.1.25-.1,3-.1,3.57,0,.88,0,1.11.6,1.11H8c.64,0,.68-.32.68-1.05s0-2.92-.06-3.7c0-.21-.17-1.17-.17-1.35A.23.23,0,0,1,8.71,25c.07,0,1.95.4,1.95.84,0,.08,0,.13-.36.44a1,1,0,0,0-.16.61,21.74,21.74,0,0,0-.05,2.25,7.08,7.08,0,0,0,.15,2.09.79.79,0,0,0,.52.13h1.65c.17,0,.48,0,.59-.27a16.57,16.57,0,0,0,.08-2.07,27.43,27.43,0,0,0-.1-2.91c0-.1-.11-.48-.11-.56a.24.24,0,0,1,.25-.25c.07,0,1.51.46,1.7.52a.35.35,0,0,1,.23.33c0,.13-.34.53-.38.63a3,3,0,0,0-.14,1.34v2.76c0,.48.27.48.71.48.25,0,.6,0,1-.61s.52-.73.71-.73a5.64,5.64,0,0,1,2,1.61c0,.29-.41.29-1.1.29H15.17c-.56,0-.67.21-.67.73v2.74c0,.52.09,2.82.09,3.3s0,.57-.4.78a1.68,1.68,0,0,1-.75.21c-.34,0-.44-.15-.44-.53,0-.58,0-.87-.67-.87H10.76c-.56,0-.58.16-.6.73s-.86.87-1.22.87-.41-.18-.41-.5.08-1.94.08-2.25.06-4.18.06-4.41c0-.63-.1-.8-.64-.8H5.87c-.62,0-.62.15-.62,1.47s0,7.67.16,8.19c.09.29.25.33.59.33h8.42c.82,0,1.05,0,1.42-.6s.52-.74.71-.74a5.59,5.59,0,0,1,2,1.61c0,.28-.42.3-1.11.3H6c-.55,0-.59.21-.63.56s-.65.69-1.06.69-.59-.06-.59-.61c0-.25.08-1.4.08-1.65.05-1.4.07-6.71.07-7.35,0-.32,0-1.65-.05-1.84C3.72,32,3.41,32,3.09,32c-.87,0-1.73,0-2,0l-.44.07c-.06,0-.11-.05-.19-.15Zm12.25,6.33c.25,0,.56,0,.65-.37S13,34.48,13,34c0-2,0-2-.69-2H10.8c-.18,0-.48,0-.6.25s-.08,2.24-.08,2.64,0,2.44.08,2.65.42.27.6.27Z"/><path class="be132ac2-34f4-47db-8321-7eb9668b3261" d="M43.78,29.85c-.12,0-.77.07-.84.07s-.15,0-.15-.12c0-.27.53-2.05.53-2.06,0-.36-.55-.89-1.5-.89,0,0-.22,0-.22.11s0,.07.24.32a1.75,1.75,0,0,1,.35,1.18c0,.07,0,1.47-.25,1.64a12,12,0,0,1-1.89.42c-.15,0-.89-.2-.93-.2a.13.13,0,0,0-.13.12,1.6,1.6,0,0,0,1.21,1.11c.28,0,1.1-.49,1.41-.49.09,0,.1.07.1.11a6.17,6.17,0,0,1-.25.9,7.05,7.05,0,0,1-1,1.91c-.52.75-.58.66-.58,1a.36.36,0,0,0,.58.23,8.79,8.79,0,0,0,1.88-3.75c.15-.47.16-.53.21-.59a3.06,3.06,0,0,1,1.36-.34c.41,0,1,.07,1,1A11.44,11.44,0,0,1,44.43,34c-.37,1.4-1.21,2.39-1.63,2.39a3.62,3.62,0,0,1-.72-.1,2.92,2.92,0,0,0-.35-.1.07.07,0,0,0-.07.07s.15.36.18.46c.17.47.35.95.88.95a2.19,2.19,0,0,0,1.42-.95,11.42,11.42,0,0,0,1.52-5.07A1.67,1.67,0,0,0,43.78,29.85Z"/><path class="be132ac2-34f4-47db-8321-7eb9668b3261" d="M46.81,28a3,3,0,0,1,.83.69c.36.43.46.5.62.5s.34-.26.34-.46-.27-1-1.77-1c-.1,0-.2.07-.2.11S46.75,27.91,46.81,28Z"/><path class="be132ac2-34f4-47db-8321-7eb9668b3261" d="M46.65,29.78s-.1,0-.1.09.23.15.34.2A1.79,1.79,0,0,1,48,31.67c0,.38-.06.42-.59.81-.08.07-.55.31-.55.39s.36.07.46.1a7.29,7.29,0,0,0,1,.41c.59,0,.8-1,.8-1.14A2.57,2.57,0,0,0,46.65,29.78Z"/><path class="be132ac2-34f4-47db-8321-7eb9668b3261" d="M47.85,26.71c-.14,0-.42.07-.42.17s0,.08.15.12a3.24,3.24,0,0,1,1.05.62c.23.27.36.42.62.42a.32.32,0,0,0,.29-.34C49.54,27.48,49.31,26.71,47.85,26.71Z"/><path class="be132ac2-34f4-47db-8321-7eb9668b3261" d="M63.58,34.56a.09.09,0,0,0-.06.08c0,.31,2.73,3.47,2.45,4-.14.27-.88.35-1.68.43-2.4.27-4.71.51-5,.51-.12,0-.37,0-.37-.22a5.24,5.24,0,0,1,.37-.94,54.9,54.9,0,0,0,2.47-6.33,2.71,2.71,0,0,1,.33-.78c.1-.14.92-.61.92-.8,0-.47-2.29-1.12-2.39-1.12a.24.24,0,0,0-.25.23c0,.08,0,.42,0,.51,0,2-1,5.16-2,8.41-.39,1.18-.55,1.18-1.45,1.18-.18,0-.75,0-1.06,0-.14,0-.75-.16-.9-.16s-.12.1-.12.16a.83.83,0,0,0,.08.35c.12.27.35.69.47,1,.47,1,.53,1.14.8,1.14s.32-.18.41-.3c.3-.39.3-.39.61-.47.12,0,8.8-1.86,9-1.86s.49.1.9,1.22c.53,1.45.6,1.62,1.09,1.62a1.13,1.13,0,0,0,.91-1.15C69.13,38.48,64.44,34.56,63.58,34.56Z"/><path class="be132ac2-34f4-47db-8321-7eb9668b3261" d="M68,26.23c-.2,0-.24.06-.71.69-.37.47-.53.47-1.39.47H62.29c-.7,0-.7-.27-.7-.88,0-.79,0-.88.08-1.06s.43-.49.43-.61c0-.39-1.82-.72-2-.72s-.26.06-.26.21a2.11,2.11,0,0,0,.1.38,7.27,7.27,0,0,1,.1,1.35c0,1.25-.16,1.33-.69,1.33h-3.9c-.49,0-.56,0-1.31-.47a6,6,0,0,0-1.39-.57c-.1,0-.2,0-.2.18s.16.66.18.8c.11.74.15,1.5.19,2.24s.06,1.53.07,2.3,0,1.63,0,2.45c-.45,9.82-8.76,10.6-18.09,7a21.88,21.88,0,0,1-5.16-3.11c-.4-.36-.44-.42-.44-.54s.06-.13.21-.13h3.94a.4.4,0,0,1,.46.37c.08.38.11.65.5.65a.93.93,0,0,0,.87-1c0-.75-.12-4-.12-4.67,0-.29,0-.56.23-.69s.39-.22.39-.37-.77-1-1-1-.27.1-.6.39-.35.23-1.16.23H24.34a2.75,2.75,0,0,1-.79-.09,14.38,14.38,0,0,0-1.43-.43c-.06,0-.15,0-.15.12s.21.63.23.75c.11.67.13,3,.13,3.86,0,.29-.06,1.58-.06,1.83s0,.75.56.75a1,1,0,0,0,.79-.38c.18-.29.2-.33.7-.33H26.5c.11,0,.35,0,.35.25a9.37,9.37,0,0,1-2.47,2.76,19.24,19.24,0,0,1-3.86,2.35c-.21.1-.31.16-.31.25s.06.06.12.06a13,13,0,0,0,4.37-1.75,2.23,2.23,0,0,1,.45-.27.28.28,0,0,1,.27.21c0,.11.06.54.06.79a5.44,5.44,0,0,1-1.95,4.49c-.21.2-1.37,1-1.37,1s.11.07.17.07,3.51-.69,4.32-3.72A10.17,10.17,0,0,0,27,41.65c0-.29.06-.33.2-.41s.25-.23.25-.29c0-.29-.39-.31-1-.36-.23,0-.29,0-.29-.14s.31-.31.39-.38c.33-.29,1.41-1.32,2.1-2a.37.37,0,0,1,.27-.14c.14,0,.27.2.47.47a15.31,15.31,0,0,0,1.6,1.83c.09.08.29.27.29.35s0,.07-.1.07-.44-.11-.52-.11-.17,0-.17.17.17,1,.19,1.16c.15,1.06.15,4.94.15,5.5,0,.3-.07,1.67-.07,1.94s.07.68.57.68a.93.93,0,0,0,.91-1.06c0-.73-.17-6-.17-6.69,0-.49,0-.72.4-.72.16,0,.21,0,.74.33a21,21,0,0,0,4.89,1.76c4.55.94,13.05,1.07,15.71-6.92a16.86,16.86,0,0,0,.72-4.35c.09-1.26,0-2.56,0-3.82,0-.61.32-.61.71-.61H68.7c1,0,1.08,0,1.08-.28A4.06,4.06,0,0,0,68,26.23ZM33.41,37H30c-.31,0-.56-.14-.56-.47V35.32c0-.33,0-.64.52-.64h3.38c.54,0,.54.29.54.79C33.91,36.82,33.87,37,33.41,37Zm-3.36-5.06h3.22c.54,0,.62,0,.62,1.72a.45.45,0,0,1-.48.52H30c-.54,0-.54-.15-.54-1.43C29.43,32.17,29.43,31.94,30.05,31.94ZM27.58,37H24.22c-.58,0-.58,0-.58-1.8,0-.19,0-.52.51-.52h3.37c.33,0,.52.12.54.41,0,.06,0,1.16,0,1.33S28.08,37,27.58,37Zm0-2.82H24.16c-.52,0-.52-.08-.52-1.7,0-.25,0-.54.54-.54h3.34c.56,0,.56.27.56.87C28.08,34.05,28.08,34.18,27.54,34.18Z"/><path class="be132ac2-34f4-47db-8321-7eb9668b3261" d="M75.14,25.42c.38,0,2,.8,2,1.38,0,.43-4.31,4.51-4.31,5.18,0,.27.13.51.49.87,1.43,1.53,3.61,3.84,3.61,4.93a.67.67,0,0,1-.69.74c-.5,0-.59-.3-.93-1.23a17.65,17.65,0,0,0-2.67-4c-.5-.6-.63-.84-.63-1.17s.21-.9,1.31-2.24c1.59-1.95,2.18-2.77,2.18-3.35a1.44,1.44,0,0,0-.4-.91c0-.08-.08-.14,0-.19S75.09,25.42,75.14,25.42Z"/><path class="be132ac2-34f4-47db-8321-7eb9668b3261" d="M83.36,25.39a1.25,1.25,0,0,0-.21-.65,2.4,2.4,0,0,1-.29-.41c0-.18.32-.31.62-.31a1.25,1.25,0,0,1,1.11.65c.07.1.22.16.68.28.29.07.88.24.88.65s-.86.83-2.1,1.18c-.14,0-.15.09-.29.61-.19.74-1.5,5.74-2.91,5.74-.41,0-.48-.27-.48-.42s0-.28.51-.91A13,13,0,0,0,83,27c0-.14-.1-.15-.33-.17-1.81-.14-1.81-1.18-1.81-1.19s0-.18.11-.18.1,0,.41.19a2.38,2.38,0,0,0,1.18.31,1.91,1.91,0,0,0,.67-.09A.67.67,0,0,0,83.36,25.39Zm4.41,9.26a2,2,0,0,1-2.16,1.61,2.11,2.11,0,0,1-2.31-1.71c0-1,1.09-1.47,2.46-1.47l.8,0c.14,0,.21,0,.21-.16s-.06-1.21-.06-1.42c0-1.63.1-2.41,1.38-3.12,1-.53,1.06-.58,1.06-1a1.24,1.24,0,0,0-.43-.75c-.14-.12-.2-.18-.2-.24s0-.08.11-.08a5.2,5.2,0,0,1,.9.26,1.57,1.57,0,0,1,1.12,1.5.71.71,0,0,1-.72.77,1,1,0,0,1-.35-.06,2.54,2.54,0,0,0-.83-.23,1.86,1.86,0,0,0-1.12.44,1.65,1.65,0,0,0-.37,1.23c0,.37.16,2.66.62,3,.13.11.85.34,1,.42.32.16,1.21.63,1.21,1.18,0,.25-.11.52-.41.52s-.25-.05-.48-.24c-.41-.36-1.11-.81-1.33-.72C87.8,34.44,87.8,34.5,87.77,34.65Zm-2.21-.84c-.35,0-1.73,0-1.73.78,0,.36.46.8,1.38.8,1.49,0,1.7-1.12,1.61-1.36S85.92,33.81,85.56,33.81Zm-.41-8.46c0-.1-.53-.37-.63-.37-.26,0-.36.61-.36.65a.14.14,0,0,0,0,.09S85.15,25.57,85.15,25.35Z"/><path class="be132ac2-34f4-47db-8321-7eb9668b3261" d="M100.44,36.92a2.38,2.38,0,0,0-2.55-2.29c-2,0-3.27,2.06-3.54,2.53s-.45.8-.86.8a.42.42,0,0,1-.44-.42c0-.38.12-.71,1.19-2A50.37,50.37,0,0,0,97.65,31c.5-.71.71-1,.71-1.19s-.11-.21-.29-.21c-.56,0-1.44.75-1.7,1-.6.5-.82.55-1.07.55-.71,0-1.18-1-1.18-1s0-.05.36-.05a7.34,7.34,0,0,0,2.34-.54c.94-.41,1-.45,1.37-.45.61,0,1.59.37,1.59,1,0,.43-.35.68-1.07,1.17a9.25,9.25,0,0,0-2.42,3.09c0,.05,0,.11.09.11l.38-.14a3.68,3.68,0,0,1,1.33-.24,3.25,3.25,0,0,1,3.39,3.14c0,1.91-1.86,3.25-3.77,3.25-1.49,0-2.56-.8-2.56-1.55a1.45,1.45,0,0,1,1.49-1.22,2.23,2.23,0,0,1,1.72,1c.21.28.3.41.51.41A2.23,2.23,0,0,0,100.44,36.92Zm-3.88,1.36a.61.61,0,0,0-.63.53c0,.39.65.7,1.3.7a.24.24,0,0,0,.25-.27A1,1,0,0,0,96.56,38.28Z"/><path class="be132ac2-34f4-47db-8321-7eb9668b3261" d="M108.83,40.83a2.78,2.78,0,1,1-5.55,0,2.78,2.78,0,0,1,5.55,0Zm-5.06,0a2.3,2.3,0,0,0,2.31,2.3,2.27,2.27,0,0,0,2.28-2.25A2.3,2.3,0,0,0,106,38.55,2.23,2.23,0,0,0,103.77,40.81Z"/></g></svg>